<?xml version="1.0" encoding="UTF-8" standalone="no"?>
<svg
   xmlns:dc="http://purl.org/dc/elements/1.1/"
   xmlns:cc="http://creativecommons.org/ns#"
   xmlns:rdf="http://www.w3.org/1999/02/22-rdf-syntax-ns#"
   xmlns:svg="http://www.w3.org/2000/svg"
   xmlns="http://www.w3.org/2000/svg"
   xmlns:sodipodi="http://sodipodi.sourceforge.net/DTD/sodipodi-0.dtd"
   xmlns:inkscape="http://www.inkscape.org/namespaces/inkscape"
   version="1.1"
   id="svg2"
   xml:space="preserve"
   width="1108.344"
   height="1108.3093"
   viewBox="0 0 1108.344 1108.3093"
   sodipodi:docname="CREWKERZ_logo_Crewkerz-rond_noir.ai"><metadata
     id="metadata8"><rdf:RDF><cc:Work
         rdf:about=""><dc:format>image/svg+xml</dc:format><dc:type
           rdf:resource="http://purl.org/dc/dcmitype/StillImage" /></cc:Work></rdf:RDF></metadata><defs
     id="defs6"><clipPath
       clipPathUnits="userSpaceOnUse"
       id="clipPath18"><path
         d="M 0,831.232 H 831.258 V 0 H 0 Z"
         id="path16" /></clipPath></defs><sodipodi:namedview
     pagecolor="#ffffff"
     bordercolor="#666666"
     borderopacity="1"
     objecttolerance="10"
     gridtolerance="10"
     guidetolerance="10"
     inkscape:pageopacity="0"
     inkscape:pageshadow="2"
     inkscape:window-width="640"
     inkscape:window-height="480"
     id="namedview4" /><g
     id="g10"
     inkscape:groupmode="layer"
     inkscape:label="CREWKERZ_logo_Crewkerz-rond_noir"
     transform="matrix(1.3333333,0,0,-1.3333333,0,1108.3093)"><g
       id="g12"><g
         id="g14"
         clip-path="url(#clipPath18)"><g
           id="g20"
           transform="translate(433.6063,412.8105)"><path
             d="m 0,0 -8.572,-8.391 2.065,-11.826 -10.66,5.549 -10.631,-5.601 2.008,11.826 -8.633,8.343 11.886,1.778 5.278,10.76 L -11.91,1.7 Z m -8.572,-67.894 2.065,-11.826 -10.66,5.549 -10.631,-5.601 2.008,11.826 -8.633,8.343 11.886,1.778 5.278,10.761 5.349,-10.739 11.91,-1.7 z m 0,-59.502 2.065,-11.828 -10.66,5.549 -10.631,-5.6 2.008,11.826 -8.633,8.344 11.886,1.777 5.278,10.761 5.349,-10.739 11.91,-1.7 z m 2.065,-71.331 -10.66,5.549 -10.631,-5.6 2.008,11.826 -8.633,8.344 11.886,1.777 5.278,10.761 5.349,-10.739 11.91,-1.7 -8.572,-8.39 z m 138.788,139.09 c 1.209,5.848 1.169,9.25 0.268,13.72 -17.453,79.819 -60.378,158.025 -71.527,177.486 -32.904,16.421 -73.641,27.51 -73.641,27.51 0,0 24.994,-2.074 68.961,-12.905 l -15.909,79.344 c -0.696,3.565 -3.69,6.337 -7.957,8.164 -7.053,3.1 -19.58,8.234 -37.588,14.423 -3.149,1.043 -9.715,2.199 -12.14,2.228 -2.409,-0.01 -8.989,-1.206 -12.184,-2.249 -17.981,-6.173 -30.496,-11.301 -37.564,-14.397 -4.256,-1.856 -7.21,-4.633 -7.947,-8.185 l -15.872,-79.35 c 43.949,10.833 68.944,12.923 68.944,12.923 0,0 -40.714,-11.1 -73.644,-27.526 -11.13,-19.46 -54.063,-97.678 -71.456,-177.502 -0.899,-4.49 -0.936,-7.877 0.266,-13.715 0.063,-0.243 0.048,-0.464 0.02,-0.685 16.733,-75.211 55.812,-148.733 69.25,-172.578 1.22,-2.131 2.692,-3.36 3.989,-3.375 1.189,0.002 2.219,1.007 2.813,3.318 h 0.014 c 4.94,19.401 17.659,72.549 28.375,145.762 0.133,0.535 0.251,1.053 0.385,1.678 8.001,36.931 20.975,139.621 27.398,192.496 -2.326,-111.894 -17.688,-211.229 -30.282,-275.428 17.438,-30.919 34.723,-55.292 42.793,-66.256 1.586,-2.091 3.208,-2.939 4.702,-2.936 1.876,0.014 3.59,1.259 4.935,3.11 8.14,11.02 25.321,35.32 42.653,66.051 C 17.723,-104.3 2.341,-4.933 -0.03,106.935 6.433,54.091 19.398,-48.612 27.44,-85.534 c 0.157,-0.632 0.268,-1.156 0.393,-1.665 10.711,-73.222 23.459,-126.386 28.417,-145.746 v -0.024 c 0.611,-2.287 1.64,-3.314 2.814,-3.322 1.312,0.01 2.767,1.261 3.941,3.37 13.478,23.862 52.542,97.362 69.265,172.607 -0.047,0.22 -0.049,0.441 0.011,0.677"
             style="fill:#231f20;fill-opacity:1;fill-rule:nonzero;stroke:none"
             id="path22" /></g><g
           id="g24"
           transform="translate(771.4608,377.998)"><path
             d="m 0,0 c -13.883,0 -25.144,11.232 -25.144,25.117 0,13.898 11.261,25.131 25.144,25.131 13.884,0 25.118,-11.233 25.118,-25.131 C 25.118,11.232 13.884,0 0,0 m -61.036,146.013 c -11.357,30.831 -27.645,59.882 -48.034,85.711 28.164,-3.17 58.201,-9.949 87.05,-21.933 -6.219,3.43 -12.066,6.9 -18.354,9.88 -7.352,11.725 -14.335,23.724 -22.958,34.574 12.477,-2.46 24.954,-5.684 37.144,-9.867 16.918,-26.401 30.295,-55.058 39.944,-84.891 -21.933,13.899 -44.877,24.789 -67.877,32.607 -9.005,2.952 -17.205,5.93 -26.376,7.884 9.813,-3.033 18.518,-7.214 28.18,-11.397 9.648,-18.763 16.754,-38.686 22.985,-58.816 -10.782,6.027 -21.372,11.438 -31.704,16.248 m -295.697,-396.755 c -159.246,0.493 -287.936,130.001 -287.444,289.247 0.493,159.246 130.015,287.95 289.247,287.457 159.246,-0.519 287.95,-129.986 287.472,-289.247 -0.52,-159.26 -130.016,-287.962 -289.275,-287.457 m 200.137,-35.795 c -10.24,-5.509 -20.446,-10.644 -30.975,-15.58 -7.078,15.713 -14.157,31.426 -21.235,47.138 8.582,3.824 17.098,8.073 25.313,12.629 11.361,6.515 23.019,6.786 30.283,-5.395 2.319,-3.654 3.479,-5.481 5.797,-9.134 8.32,-12.186 3.164,-23.014 -9.183,-29.658 m -49.995,-23.576 c -2.523,2.833 -3.773,4.257 -6.246,7.12 -8.292,-3.166 -12.474,-4.63 -20.89,-7.319 -0.076,-3.761 -0.127,-5.644 -0.257,-9.413 -6.666,-2.07 -10.016,-3.033 -16.745,-4.812 1.474,18.195 2.334,36.311 2.577,54.561 8.504,2.676 12.725,4.149 21.088,7.367 11.675,-14.089 23.76,-27.657 36.397,-40.885 -6.326,-2.787 -9.512,-4.111 -15.924,-6.619 m -93.332,-24.284 c -2.346,17.069 -4.694,34.137 -7.043,51.207 13.017,1.792 25.934,4.3 38.676,7.512 1.103,-4.39 1.654,-6.585 2.757,-10.975 -9.97,-2.507 -14.991,-3.584 -25.077,-5.387 0.669,-3.72 1.004,-5.58 1.673,-9.3 9.703,1.737 14.536,2.765 24.135,5.137 l 2.305,-9.287 c -9.846,-2.44 -14.802,-3.496 -24.755,-5.283 0.712,-3.963 1.068,-5.944 1.78,-9.906 9.244,1.619 18.514,3.621 27.602,5.96 1.111,-4.381 1.666,-6.571 2.777,-10.953 -14.885,-3.532 -29.707,-6.418 -44.83,-8.725 m -27.032,-2.812 c -0.568,8.085 -0.852,12.127 -1.421,20.212 -8.224,-0.578 -12.343,-0.759 -20.581,-0.902 0.141,-8.107 0.212,-12.161 0.353,-20.267 -6.642,-0.117 -9.964,-0.109 -16.604,0.042 0.396,17.227 0.791,34.452 1.186,51.678 5.803,-0.127 8.707,-0.131 14.51,-0.023 0.138,-7.779 0.208,-11.67 0.347,-19.449 7.985,0.145 11.979,0.322 19.95,0.889 -0.549,7.755 -0.824,11.633 -1.372,19.387 5.791,0.408 8.684,0.669 14.459,1.311 1.91,-17.124 3.82,-34.248 5.728,-51.373 -6.612,-0.736 -9.924,-1.037 -16.555,-1.505 m -59.489,0.122 c -1.026,3.645 -1.525,5.469 -2.494,9.119 -8.719,0.724 -13.072,1.204 -21.75,2.404 -1.68,-3.363 -2.534,-5.04 -4.266,-8.385 -6.854,0.998 -10.273,1.569 -17.089,2.858 9.155,15.782 17.719,31.757 25.779,48.122 8.755,-1.245 13.15,-1.732 21.952,-2.435 4.338,-17.737 9.254,-35.198 14.791,-52.594 -6.774,0.225 -10.161,0.407 -16.923,0.911 m -67.904,45.124 c -1.532,-5.641 -2.298,-8.463 -3.831,-14.104 -3.481,-16.085 -21.218,-13.866 -32.799,-9.681 -11.968,4.323 -26.604,13.059 -19.792,28.042 2.318,5.366 3.477,8.05 5.795,13.416 5.801,13.48 19.793,12.447 31.31,8.134 10.415,-3.901 24.857,-11.709 19.317,-25.807 m -94.828,1.75 c -12.155,6.487 -26.005,17.225 -15.977,31.911 2.867,4.51 4.301,6.765 7.169,11.275 8.315,13.86 21.868,9.373 33.578,3.139 10.174,-5.415 22.352,-12.347 15.393,-25.906 -5.734,2.575 -8.581,3.926 -14.228,6.754 2.065,4.825 -2.431,7.009 -6.497,9.184 -9.766,5.222 -11.495,2.899 -15.792,-4.25 -1.677,-2.915 -2.516,-4.372 -4.194,-7.286 -4.566,-7.945 -1.738,-10.778 5.893,-14.858 7.47,-3.995 10.217,-3.499 13.434,2.909 -4.009,2.004 -6.003,3.035 -9.967,5.161 1.82,3.376 2.729,5.064 4.549,8.441 9.542,-5.128 14.385,-7.511 24.185,-11.913 -1.484,-3.292 -2.226,-4.939 -3.711,-8.232 -6.832,-17.362 -20.002,-13.711 -33.835,-6.329 m -108.968,413.187 c -16.562,29.271 -30.365,63.777 -37.443,101.234 -0.082,1.995 0.41,4.183 1.475,6.219 14.363,23.517 29.613,46.721 48.528,66.851 -0.315,-13.187 -0.588,-25.595 0.71,-38.414 -8.049,-10.303 -15.47,-21.045 -22.097,-32.277 3.963,-21.865 9.908,-42.638 17.874,-61.988 -3.224,9.702 -5.383,19.405 -7.365,29.516 8.65,17.247 19.282,33.482 30.993,48.788 l 19.938,-15.223 c -23.778,-31.323 -41.762,-66.963 -52.613,-104.706 M -707.641,5.91 c -13.883,0 -25.144,11.233 -25.144,25.117 0,13.898 11.261,25.131 25.144,25.131 13.885,0 25.119,-11.233 25.119,-25.131 0,-13.884 -11.234,-25.117 -25.119,-25.117 m 68.001,298.133 c 5.958,6.204 12.244,12.08 18.394,18.134 -0.191,-10.057 -0.082,-19.883 0.301,-29.421 0.629,10.521 1.598,21.4 2.938,32.55 16.098,14.541 33.358,27.688 51.451,39.686 -3.744,-12.709 -6.861,-25.2 -9.47,-37.295 -16.03,-12.393 -31.117,-25.949 -45.124,-40.628 l 31.075,-29.229 c 2.993,-2.857 3.075,-7.94 0.11,-11.303 -4.058,-4.864 -8.583,-9.36 -12.326,-14.471 l -37.24,29.408 c -0.929,13.898 -0.588,27.783 -0.109,42.569 m 167.499,104.952 c -14.171,-21.934 -25.472,-44.454 -33.616,-67.399 -3.253,-8.677 -6.082,-17.274 -8.282,-26.307 3.212,9.744 7.393,18.642 11.834,28.029 6.355,3.225 12.805,6.258 19.557,8.65 l 9.4,-23.273 c -24.173,-10.03 -47.705,-22.247 -68.586,-38.262 v -0.014 L -570,328.628 c 3.047,13.241 6.259,27.727 11.179,40.983 26.894,17.028 56.412,29.682 86.68,39.384 m 8.924,2.664 16.098,-56.124 -4.809,28.027 c 7.461,12.586 16.288,23.274 25.636,35.246 1.477,1.31 3.472,2.295 5.74,2.76 l 23.409,2.952 6.136,-58.051 0.11,28.451 v 0.013 c 10.058,11.37 21.182,21.222 33.125,31.895 15.018,-0.422 30.106,-0.476 45.042,-2.473 11.096,-1.613 22.329,-2.433 33.262,-5.166 l -11.398,-57.259 8.542,27.032 c 13.01,7.774 26.743,14.73 41.175,20.525 14.594,-3.908 28.356,-10.139 42.418,-15.564 -19.173,-6.069 -36.706,-11.932 -53.61,-20.514 9.469,-15.388 16.74,-32.605 23.04,-48.266 -11.357,4.237 -22.412,9.402 -34.177,12.45 -3.582,6.833 -7.326,14.184 -11.562,20.893 6.013,4.688 12.066,8.637 18.462,12.874 -14.006,-6.56 -27.412,-15.142 -39.644,-23.424 h -0.027 c -1.694,-0.928 -3.772,-1.311 -5.876,-0.846 l -18.887,2.432 8.282,74.833 c -31.745,-21.086 -58.379,-45.752 -79.234,-72.933 h -0.027 c -1.339,-1.462 -3.171,-2.502 -5.33,-2.775 -6.314,-0.642 -12.599,-1.476 -18.748,-3.005 l -5.549,28.452 c 5.056,9.005 10.659,17.492 16.727,25.745 -16.236,-18.831 -29.915,-38.509 -40.559,-59.281 h -0.028 c -1.053,-1.655 -2.706,-2.965 -4.784,-3.594 -6.176,-1.571 -12.026,-3.922 -17.928,-6.3 l -17.001,44.304 c 6.205,12.723 13.557,24.598 21.688,36.61 z m 363.671,-81.186 c -36.118,0.998 -70.746,-4.018 -101.781,-12.928 9.661,1.735 19.732,3.252 30.173,4.563 l 17.492,-12.38 -14.991,-20.144 c -16.946,12.518 -35.025,23.561 -54.129,32.36 -2.311,7.353 -5.098,14.267 -8.173,21.183 l 16.208,39.603 c 7.898,2.814 16.016,5.383 24.119,7.27 33.058,-15.307 63.888,-35.395 91.082,-59.527 m 25.228,-24.025 c -10.114,0.027 -19.966,-0.246 -29.546,-0.779 10.55,-0.505 21.646,-1.162 32.661,-2.487 14.595,-16.03 28.179,-32.976 40.149,-51.054 -12.299,3.894 -25.307,6.49 -37.362,9.005 -12.462,16.015 -26.333,30.829 -41.092,44.714 l -28.876,-31.432 c -2.76,-2.991 -7.708,-2.951 -11.246,-0.178 l -14.568,12.233 28.971,37.58 c 13.529,0.628 27.947,1.093 42.459,0.492 z m -280.228,146.783 c -229.53,0.724 -416.175,-184.8 -416.913,-414.329 -0.71,-229.529 184.8,-416.188 414.356,-416.898 229.515,-0.725 416.161,184.773 416.898,414.302 0.711,229.555 -184.799,416.201 -414.341,416.925"
             style="fill:#231f20;fill-opacity:1;fill-rule:nonzero;stroke:none"
             id="path26" /></g><g
           id="g28"
           transform="translate(615.5989,733.6425)"><path
             d="m 0,0 h -0.341 c -7.025,-0.219 -13.885,-0.546 -20.581,-0.956 -4.072,2.569 -8.336,4.755 -12.655,6.777 l -5.876,-11.37 c -5.207,-2.008 -10.317,-4.072 -15.292,-6.177 l -12.914,-5.753 C -46.778,-9.813 -23.956,-3.525 0,0"
             style="fill:#231f20;fill-opacity:1;fill-rule:nonzero;stroke:none"
             id="path30" /></g><g
           id="g32"
           transform="translate(293.8485,100.5146)"><path
             d="m 0,0 c -7.449,2.597 -10.123,2.886 -13.067,-4.185 -1.662,-4.352 -2.492,-6.528 -4.154,-10.88 -2.53,-7.291 -0.207,-9.078 7.807,-11.877 8.024,-2.803 11.167,-2.914 13.492,4.451 1.407,4.441 2.11,6.663 3.517,11.104 C 9.905,-4.096 7.438,-2.594 0,0"
             style="fill:#231f20;fill-opacity:1;fill-rule:nonzero;stroke:none"
             id="path34" /></g><g
           id="g36"
           transform="translate(375.1659,83.3476)"><path
             d="m 0,0 c -3.692,-8.608 -5.619,-12.893 -9.635,-21.41 5.857,-0.753 8.791,-1.073 14.666,-1.604 C 2.908,-13.823 1.932,-9.221 0.149,-0.011 0.089,-0.006 0.06,-0.004 0,0"
             style="fill:#231f20;fill-opacity:1;fill-rule:nonzero;stroke:none"
             id="path38" /></g><g
           id="g40"
           transform="translate(228.328,684.9374)"><path
             d="M 0,0 C 3.88,22.303 10.659,44.564 19.979,66.744 16.454,60.758 12.955,55.087 10.057,48.745 L -2.323,41.421 4.359,30.489 C 2.214,20.525 0.915,10.141 0,0"
             style="fill:#231f20;fill-opacity:1;fill-rule:nonzero;stroke:none"
             id="path42" /></g><g
           id="g44"
           transform="translate(537.4461,101.8251)"><path
             d="m 0,0 c 0.367,-9.368 0.469,-14.068 0.505,-23.492 5.659,1.865 8.475,2.852 14.076,4.939 C 8.652,-11.196 5.764,-7.473 0.144,0.055 0.086,0.032 0.058,0.021 0,0"
             style="fill:#231f20;fill-opacity:1;fill-rule:nonzero;stroke:none"
             id="path46" /></g><g
           id="g48"
           transform="translate(604.2425,121.7851)"><path
             d="m 0,0 c -3.333,5.795 -6.098,5.771 -10.831,3.163 -4.749,-2.601 -7.142,-3.855 -11.961,-6.269 4.965,-9.907 7.447,-14.859 12.412,-24.765 5.176,2.595 7.747,3.942 12.848,6.737 5.389,2.947 5.642,7.035 2.928,11.757 C 3.238,-5.626 2.159,-3.751 0,0"
             style="fill:#231f20;fill-opacity:1;fill-rule:nonzero;stroke:none"
             id="path50" /></g><g
           id="g52"
           transform="translate(186.5242,334.2216)"><path
             d="M 0,0 0.009,-0.023 C 0.006,-0.016 0.003,-0.008 0,0 Z"
             style="fill:#231f20;fill-opacity:1;fill-rule:nonzero;stroke:none"
             id="path54" /></g><g
           id="g56"
           transform="translate(243.8651,367.7314)"><path
             d="m 0,0 0.014,0.204 0.069,0.233 c 3.298,15.155 7.466,30.209 12.135,44.834 -0.095,-0.296 -0.193,-0.589 -0.287,-0.884 l -83.202,1.611 c 0.211,-27.87 5.083,-54.623 13.931,-79.508 l 56.314,21.743 C -1.132,-7.888 -0.826,-4.137 0,0"
             style="fill:#231f20;fill-opacity:1;fill-rule:nonzero;stroke:none"
             id="path58" /></g><g
           id="g60"
           transform="translate(256.7845,415.1601)"><path
             d="m 0,0 c 6.166,19.05 13.161,37.33 20.234,54.08 -0.856,-2.036 -1.717,-4.103 -2.583,-6.191 l -87.892,33.929 c -9.046,-25.447 -14.012,-52.83 -14.012,-81.39 0,0.656 0.04,1.284 0.04,1.913 L 1.294,3.98 C 0.868,2.664 0.434,1.329 0,0"
             style="fill:#231f20;fill-opacity:1;fill-rule:nonzero;stroke:none"
             id="path62" /></g><g
           id="g64"
           transform="translate(230.7425,257.9922)"><path
             d="m 0,0 c 17.529,-20.528 38.375,-38.113 61.769,-51.894 l 1.007,1.838 C 52.547,-28.881 41.161,-2.972 31.212,25.2 Z"
             style="fill:#231f20;fill-opacity:1;fill-rule:nonzero;stroke:none"
             id="path66" /></g><g
           id="g68"
           transform="translate(260.1991,288.2197)"><path
             d="m 0,0 c -6.179,17.986 -11.72,36.796 -15.937,55.814 l -0.862,3.869 0.097,0.751 c -0.057,0.36 -0.073,0.684 -0.124,1.038 l -55.48,-18.985 c 9.557,-25.602 23.305,-49.13 40.418,-69.811 L -0.125,0.359 C -0.083,0.239 -0.042,0.12 0,0"
             style="fill:#231f20;fill-opacity:1;fill-rule:nonzero;stroke:none"
             id="path70" /></g><g
           id="g72"
           transform="translate(294.3812,626.2704)"><path
             d="M 0,0 C -0.399,-0.235 -0.791,-0.471 -1.181,-0.706 -0.785,-0.475 -0.393,-0.237 0,0"
             style="fill:#231f20;fill-opacity:1;fill-rule:nonzero;stroke:none"
             id="path74" /></g><g
           id="g76"
           transform="translate(295.0599,626.6767)"><path
             d="m 0,0 c -0.229,-0.132 -0.453,-0.27 -0.679,-0.406 0.21,0.124 0.418,0.247 0.635,0.369 0,0 0.025,0.023 0.044,0.037"
             style="fill:#231f20;fill-opacity:1;fill-rule:nonzero;stroke:none"
             id="path78" /></g><g
           id="g80"
           transform="translate(537.7459,207.9511)"><path
             d="M 0,0 1.02,-1.84 C 24.406,11.938 45.248,29.519 62.773,50.04 L 31.568,75.244 C 21.615,47.085 10.228,21.185 0,0"
             style="fill:#231f20;fill-opacity:1;fill-rule:nonzero;stroke:none"
             id="path82" /></g><g
           id="g84"
           transform="translate(297.0291,512.874)"><path
             d="M 0,0 C -0.29,-0.585 -0.572,-1.144 -0.864,-1.736 L -68.784,57.49 C -85.895,36.812 -99.631,13.256 -109.188,-12.352 L -19.74,-42.977 C -12.973,-26.989 -6.185,-12.507 0,0"
             style="fill:#231f20;fill-opacity:1;fill-rule:nonzero;stroke:none"
             id="path86" /></g><g
           id="g88"
           transform="translate(187.8094,500.5332)"><path
             d="m 0,0 c -0.206,-0.573 -0.424,-1.147 -0.616,-1.721 -0.04,-0.104 -0.075,-0.214 -0.113,-0.318 0.246,0.68 0.508,1.352 0.761,2.028 z"
             style="fill:#231f20;fill-opacity:1;fill-rule:nonzero;stroke:none"
             id="path90" /></g><g
           id="g92"
           transform="translate(230.679,573.2626)"><path
             d="m 0,0 c -0.178,-0.191 -0.356,-0.384 -0.533,-0.602 -0.649,-0.742 -1.244,-1.511 -1.878,-2.269 0.797,0.963 1.61,1.912 2.422,2.862 z"
             style="fill:#231f20;fill-opacity:1;fill-rule:nonzero;stroke:none"
             id="path94" /></g><g
           id="g96"
           transform="translate(317.8104,552.1347)"><path
             d="m 0,0 0.902,1.571 1.257,6.233 15.866,79.384 c 0.451,2.323 1.216,4.537 2.16,6.655 -14.921,-5.027 -29.191,-11.466 -42.659,-19.15 0.132,0.065 0.264,0.128 0.391,0.196 L 6.177,28.042 4.401,19.132 -25.307,73.013 C -48.711,59.237 -69.587,41.654 -87.121,21.119 l 68.778,-55.472 C -10.493,-18.737 -3.854,-6.744 0,0"
             style="fill:#231f20;fill-opacity:1;fill-rule:nonzero;stroke:none"
             id="path98" /></g><g
           id="g100"
           transform="translate(575.4627,412.1181)"><path
             d="M 0,0 C -0.099,0.308 -0.199,0.613 -0.298,0.922 4.375,-13.716 8.547,-28.782 11.848,-43.95 l 0.069,-0.233 0.027,-0.204 c 0.817,-4.137 1.126,-7.889 1.019,-11.769 l 56.289,-21.738 c 8.851,24.887 13.753,51.631 13.963,79.505 z"
             style="fill:#231f20;fill-opacity:1;fill-rule:nonzero;stroke:none"
             id="path102" /></g><g
           id="g104"
           transform="translate(644.721,334.2216)"><path
             d="M 0,0 -0.006,0.003 C -0.093,-0.243 -0.175,-0.491 -0.263,-0.737 -0.176,-0.493 -0.082,-0.247 0,0"
             style="fill:#231f20;fill-opacity:1;fill-rule:nonzero;stroke:none"
             id="path106" /></g><g
           id="g108"
           transform="translate(536.0506,204.4394)"><path
             d="M 0,0 C 0.231,0.133 0.449,0.286 0.681,0.419 0.456,0.286 0.237,0.15 0.009,0.02 0.006,0.014 0.003,0.007 0,0"
             style="fill:#231f20;fill-opacity:1;fill-rule:nonzero;stroke:none"
             id="path110" /></g><g
           id="g112"
           transform="translate(587.9236,349.9951)"><path
             d="M 0,0 C -0.063,-0.454 -0.087,-0.877 -0.162,-1.342 L -0.065,-2.093 -0.9,-5.961 c -4.308,-19.406 -9.989,-38.599 -16.326,-56.913 0.173,0.488 0.341,0.97 0.515,1.458 l 31.737,-27.686 c 17.115,20.681 30.866,44.208 40.425,69.811 L -0.025,-0.304 C -0.011,-0.197 -0.014,-0.104 0,0"
             style="fill:#231f20;fill-opacity:1;fill-rule:nonzero;stroke:none"
             id="path114" /></g><g
           id="g116"
           transform="translate(600.6077,573.2626)"><path
             d="M 0,0 -0.001,-0.001 C 0.601,-0.705 1.195,-1.416 1.789,-2.127 1.363,-1.596 0.934,-1.068 0.492,-0.562 0.315,-0.355 0.151,-0.191 0,0"
             style="fill:#231f20;fill-opacity:1;fill-rule:nonzero;stroke:none"
             id="path118" /></g><g
           id="g120"
           transform="translate(603.013,570.3642)"><path
             d="m 0,0 -67.891,-59.227 c -0.726,1.468 -1.43,2.876 -2.14,4.298 6.504,-13.045 13.771,-28.473 20.991,-45.532 l 89.476,30.63 c 0.232,-0.573 0.424,-1.147 0.616,-1.734 0.218,-0.617 0.45,-1.204 0.656,-1.819 l -87.884,-33.931 c -0.617,1.465 -1.223,2.902 -1.831,4.346 6.859,-16.368 13.625,-34.118 19.599,-52.624 -0.474,1.46 -0.951,2.924 -1.411,4.369 l 85.493,-1.639 c 0,-0.629 0.054,-1.257 0.054,-1.913 0,59.204 -21.176,113.415 -56.344,155.547 C -0.411,0.515 -0.205,0.259 0,0"
             style="fill:#231f20;fill-opacity:1;fill-rule:nonzero;stroke:none"
             id="path122" /></g><g
           id="g124"
           transform="translate(538.7786,625.1425)"><path
             d="m 0,0 -29.731,-53.876 -0.668,3.296 2.923,-14.624 1.271,-6.233 0.889,-1.571 c 3.956,-6.925 10.829,-19.329 18.953,-35.561 -0.198,0.395 -0.405,0.813 -0.601,1.206 l 68.792,55.482 C 44.292,-31.353 23.4,-13.775 0,0"
             style="fill:#231f20;fill-opacity:1;fill-rule:nonzero;stroke:none"
             id="path126" /></g><g
           id="g128"
           transform="translate(507.2547,580.1953)"><path
             d="m 0,0 28.277,46.828 c 0.174,-0.088 0.359,-0.191 0.544,-0.272 -13.508,7.718 -27.827,14.182 -42.798,19.226 0.929,-2.118 1.709,-4.332 2.16,-6.655 z"
             style="fill:#231f20;fill-opacity:1;fill-rule:nonzero;stroke:none"
             id="path130" /></g></g></g></g></svg>
